PathFileType	4	(X/Y/Z)	s09c0103.trc
DataRate	CameraRate	NumFrames	NumMarkers	Units	OrigDataRate	OrigDataStartFrame	OrigNumFrames
200	200	6	50	mm	200	750	2000
Frame#	Time	racr			lacr			c7			jug			rlel			rdr			llel			ldr			s2			lic			ric			lasi			rasi			rpsi			lpsi			rgt			lgt			rth1			rth2			rth3			rth4			rlfc			rmfc			rsh1			rsh2			rsh3			rsh4			rlmal			rmmal			rcal			rtoe			rmt5			lth1			lth2			lth4			lth3			llfc			lmfc			llmal			lmmal			lcal			lmt5			lsh1			lsh2			lsh3			lsh4			ltoe			SBIKE			LBIKE			RBIKE			
		X1	Y1	Z1	X2	Y2	Z2	X3	Y3	Z3	X4	Y4	Z4	X5	Y5	Z5	X6	Y6	Z6	X7	Y7	Z7	X8	Y8	Z8	X9	Y9	Z9	X10	Y10	Z10	X11	Y11	Z11	X12	Y12	Z12	X13	Y13	Z13	X14	Y14	Z14	X15	Y15	Z15	X16	Y16	Z16	X17	Y17	Z17	X18	Y18	Z18	X19	Y19	Z19	X20	Y20	Z20	X21	Y21	Z21	X22	Y22	Z22	X23	Y23	Z23	X24	Y24	Z24	X25	Y25	Z25	X26	Y26	Z26	X27	Y27	Z27	X28	Y28	Z28	X29	Y29	Z29	X30	Y30	Z30	X31	Y31	Z31	X32	Y32	Z32	X33	Y33	Z33	X34	Y34	Z34	X35	Y35	Z35	X36	Y36	Z36	X37	Y37	Z37	X38	Y38	Z38	X39	Y39	Z39	X40	Y40	Z40	X41	Y41	Z41	X42	Y42	Z42	X43	Y43	Z43	X44	Y44	Z44	X45	Y45	Z45	X46	Y46	Z46	X47	Y47	Z47	X48	Y48	Z48	X49	Y49	Z49	X50	Y50	Z50	
750	3.7500	541.920902	1249.744446	-131.642908	494.236795	1196.162180	-449.511735	498.874289	1277.122806	-293.972057	469.691490	1147.948356	-268.507139	508.860978	1025.775244	-5.397110	701.167488	875.192173	-55.553091	435.855255	927.279181	-487.914807	681.727720	885.137012	-437.880385	9.303262	1130.133669	-204.434141	122.214120	1140.752249	-369.182252	160.226186	1119.015513	-69.112740	171.843812	1087.321112	-348.978563	201.572678	1069.540686	-98.217403	46.015929	1155.547315	-147.570008	29.266986	1170.634670	-252.277844	133.860326	966.968322	-38.177452	116.205582	1055.208767	-415.533782	211.829809	854.201330	-53.055955	273.801322	791.820352	-60.179173	290.354389	705.821807	-74.966448	302.312842	807.640753	-77.193576	321.873537	614.188593	-108.559866	303.881801	596.658594	-205.854573	272.573558	528.733156	-74.306296	265.214813	440.096614	-85.571370	214.861549	368.087875	-82.224449	287.253115	434.503088	-118.456497	175.236342	272.147860	-77.994326	177.381286	278.799356	-155.397806	92.662425	267.537464	-117.679000	322.434235	134.974869	-129.525067	245.266849	159.630327	-62.117897	245.341993	1003.409879	-408.660921	329.334371	997.189552	-396.117801	339.418872	1025.417349	-371.622993	405.069383	948.007175	-400.832124	485.517287	881.258614	-384.658559	496.078983	861.121987	-283.857618	273.238245	576.789789	-407.750874	286.850112	584.122315	-332.599412	192.193433	548.625814	-368.916298	354.211845	485.355368	-431.132962	430.806886	800.131235	-409.202579	398.600639	719.143512	-404.485689	328.674550	664.314846	-407.287284	420.460059	704.550560	-375.703589	448.286548	491.642243	-364.254875	-64.812683	851.668414	-238.845510	21.153424	84.723957	-442.172029	21.118099	84.086485	-43.802179	
751	3.7550	541.807267	1248.445694	-132.056596	494.477460	1194.967448	-449.861680	499.030075	1276.351854	-294.456644	469.099007	1146.894587	-269.767909	508.270531	1024.687625	-5.552726	700.999173	875.020416	-55.386458	435.446876	926.321587	-488.369916	681.527379	885.293339	-438.237508	9.331376	1131.178241	-205.548765	120.486973	1141.335760	-367.212168	159.704570	1119.556425	-69.665479	172.014539	1088.423067	-349.471580	201.145727	1070.078843	-98.521633	45.752444	1156.333609	-148.617919	28.814200	1172.069958	-252.957990	133.708064	967.811983	-39.228265	115.972558	1055.561637	-416.054958	213.629810	855.214102	-55.068320	276.352333	793.880089	-61.953706	294.242027	708.291052	-77.123158	304.821555	810.324739	-78.471954	326.098875	616.401277	-110.505993	306.349323	599.284106	-208.087731	274.662949	532.109230	-75.916219	264.529071	443.689833	-86.993768	212.136818	373.127777	-83.044682	286.138444	437.439628	-120.117989	169.685363	278.306303	-78.360983	171.520763	284.203342	-155.681209	86.722455	275.927252	-117.853043	312.530310	136.629137	-129.503101	236.115828	163.726883	-62.111879	244.902023	1001.323248	-409.400306	328.885922	994.306665	-397.161704	339.319390	1022.740752	-373.063829	404.033680	944.353319	-401.667373	484.518364	877.531892	-385.405065	495.040221	856.746973	-285.126238	278.277764	568.062997	-408.192865	291.421280	576.079446	-332.946194	197.898796	536.856091	-369.621400	362.719590	480.458841	-431.587408	431.170949	794.625030	-409.866188	400.779757	713.222678	-405.438142	331.740492	656.880590	-407.815669	421.950092	698.916790	-374.825330	456.217771	491.278987	-364.397518	-64.781728	851.687965	-238.836179	21.172093	84.748620	-442.187116	21.109494	84.094958	-43.810653	
752	3.7600	541.582124	1247.090453	-132.176559	494.853407	1194.001590	-450.159824	499.144015	1275.689835	-294.583765	468.614216	1145.884004	-270.872976	507.447836	1023.486103	-5.741587	700.823528	874.850173	-55.309608	434.962248	925.448525	-488.797759	681.294243	885.391415	-438.465710	9.344156	1132.112492	-206.761364	120.711801	1142.583029	-367.681847	158.955892	1119.996029	-70.325215	172.162238	1089.551006	-350.084174	200.789533	1070.475104	-98.904521	45.640467	1157.079835	-149.623155	23.675911	1175.460269	-252.429115	133.704734	968.554668	-40.290116	115.687788	1055.286785	-416.592897	215.826431	856.839300	-56.015155	279.287440	796.520230	-63.635043	298.388282	710.859876	-79.546565	307.326509	813.217772	-81.179922	330.702127	618.646618	-112.478646	309.204788	602.242299	-209.881660	276.936134	535.611986	-77.454587	263.701992	447.749067	-88.550652	209.636641	378.641997	-83.900743	286.142604	440.614574	-121.231144	164.454619	284.996580	-78.529632	165.532734	290.416233	-156.157857	81.367346	284.632282	-118.015494	302.984268	138.887552	-129.191321	227.284350	168.323520	-62.096300	244.399175	998.383745	-410.517392	328.523253	990.217044	-398.293778	339.255807	1019.130692	-374.865313	403.537663	939.258926	-401.878793	484.237901	871.996745	-385.877479	493.545030	852.761816	-285.289325	283.222643	558.376065	-408.576886	296.677689	567.102198	-332.251487	203.676657	524.097455	-370.280330	370.845321	474.885097	-432.098325	431.097942	788.286770	-410.680965	402.392996	705.894731	-405.805208	334.502814	648.258030	-408.489911	423.734401	692.366434	-375.274823	463.620216	490.147933	-364.585141	-64.761642	851.697831	-238.846091	21.188670	84.840762	-442.119588	21.121498	84.089971	-43.802620	
753	3.7650	541.194435	1245.669242	-131.983672	495.308335	1193.215016	-450.362636	499.181942	1275.087644	-294.423434	468.138068	1144.895085	-271.839595	506.509415	1022.011374	-5.824740	700.470597	874.700425	-55.266984	434.473480	924.624970	-489.193607	681.009393	885.449487	-438.564858	9.347494	1132.811996	-208.032617	120.918937	1143.488516	-368.313055	158.349225	1120.371205	-71.029829	172.424157	1090.452086	-350.833656	200.340012	1070.667210	-99.256191	45.444928	1157.615242	-150.742134	24.060945	1176.150192	-253.447075	133.823883	969.440171	-41.297435	115.340169	1054.156348	-417.072159	218.293647	858.397506	-57.203042	282.467512	799.201144	-65.764298	302.818493	713.643003	-81.460878	310.059516	816.335890	-83.585505	335.456138	621.042890	-114.455929	312.238653	605.179553	-211.173128	279.318026	539.364394	-78.900521	263.465004	451.904530	-89.767790	207.444040	384.401785	-84.690209	285.042011	443.626643	-123.552438	159.640253	292.167701	-78.918020	161.267907	297.344147	-156.734274	76.524248	294.105347	-118.136096	293.614376	141.976394	-128.887067	218.880743	173.089346	-62.305326	243.833534	994.628142	-411.773945	327.847082	985.518219	-399.879800	339.241096	1014.545191	-377.132999	402.511453	933.125552	-401.968313	482.825602	865.628949	-386.690453	492.157311	847.052552	-286.175251	288.120767	547.708224	-408.855072	300.732615	557.258217	-333.227391	209.347231	510.315618	-370.858791	378.610505	468.530342	-432.485541	430.736481	780.668418	-411.636903	403.601164	697.702075	-406.547657	336.940372	638.781702	-409.167164	425.259799	685.066248	-375.870825	470.470387	488.372343	-364.873448	-64.746526	851.673600	-238.874228	21.184046	84.696010	-442.154829	21.137668	84.090001	-43.789049	
754	3.7700	540.644613	1244.217911	-131.158768	495.778134	1192.768837	-450.480181	499.485567	1274.744788	-293.788466	467.179297	1144.342411	-272.428889	505.314482	1020.408465	-5.938510	699.717834	874.687795	-55.236807	434.067408	924.001378	-489.528531	680.743003	885.463303	-438.611103	9.343743	1133.405170	-209.307229	121.037676	1144.208495	-369.038183	157.873227	1120.620607	-71.697636	172.709236	1091.164592	-351.851757	200.158265	1070.820833	-99.678178	45.277036	1158.059235	-151.853436	24.062554	1176.644481	-254.444917	134.193243	970.181091	-42.300955	115.008378	1052.331699	-417.381962	220.805132	860.052823	-58.669983	286.004044	802.152420	-67.819924	307.593353	716.768765	-83.298622	312.905927	819.488474	-86.139744	340.395695	623.652927	-116.283355	315.935459	608.138232	-212.379441	281.751318	543.307508	-80.163656	263.447246	456.298351	-90.922147	205.587003	390.398570	-85.396258	284.541258	447.340191	-124.863129	155.184139	299.547866	-79.293161	157.209569	304.645537	-157.324362	72.104524	303.663780	-118.350404	284.439040	145.377605	-128.692337	210.537929	179.282156	-62.024917	243.116866	990.005511	-412.789264	327.094297	980.059719	-401.536756	338.995096	1009.749097	-380.000194	400.956675	926.484117	-403.238209	480.927079	858.294971	-387.668953	490.770933	839.886424	-287.601158	292.464160	536.446482	-409.454788	304.582951	546.651024	-333.655036	214.730158	495.870774	-371.428694	385.878532	461.448704	-433.076163	430.013133	772.312701	-413.069672	404.579355	688.638868	-407.293144	339.172471	628.429548	-409.916307	426.302560	676.767064	-376.511093	476.717741	485.704862	-365.350249	-64.748008	851.649528	-238.969544	21.174887	84.630531	-442.121001	21.170092	84.088560	-43.777780	
755	3.7750	539.995179	1242.762904	-130.228577	496.480176	1192.626917	-450.458291	499.673632	1274.548948	-293.020924	466.466285	1143.829309	-273.120779	503.952560	1018.661341	-5.907009	699.193711	874.670941	-55.212885	433.591920	923.427756	-489.983478	680.503675	885.448446	-438.594678	9.337395	1133.644288	-210.661852	121.546100	1144.789011	-370.183607	157.351643	1120.626893	-72.623503	172.981005	1091.577355	-353.010023	199.943377	1070.844058	-100.224436	45.081836	1158.182875	-153.039451	31.747424	1174.572143	-257.844240	134.663940	970.960855	-43.236148	114.439676	1049.909991	-417.697936	223.412754	861.845880	-59.975750	289.454498	805.070681	-70.687102	312.487983	720.129639	-85.218530	315.757040	822.853250	-88.847107	345.352844	626.474634	-117.886796	319.781326	610.958743	-213.606557	284.212023	547.391864	-81.339336	263.501142	460.845863	-91.877400	203.900954	396.639584	-86.075863	284.236239	451.314259	-125.967701	151.158418	307.243392	-79.601783	153.363590	312.165583	-157.746688	68.109915	313.800926	-118.588918	275.717165	149.350188	-128.550848	202.873682	185.492523	-61.985527	242.313783	984.914434	-414.141507	326.126623	973.901819	-403.417116	338.655743	1003.818720	-382.617023	399.126162	919.094529	-404.641016	479.692590	850.291357	-388.404619	489.159800	832.472495	-288.886498	296.701717	524.256653	-409.655758	308.350642	535.326671	-334.025202	220.285106	481.011619	-371.566374	392.556675	454.013775	-434.292816	429.137707	762.812305	-413.840648	405.288745	678.764668	-408.132034	341.110233	617.421541	-410.622396	427.141645	667.592421	-377.194442	482.499705	482.127355	-365.977945	-64.768312	851.588578	-239.126788	21.171535	84.507916	-442.115517	21.181210	84.043463	-43.781344	
